C:\OpenCap\opencap-processing\Data\f695a51c-2aed-4feb-b28d-2290ed51e9ec\OpenSimData\Dynamics\Javelin50\GRF_Javelin50_0.mot
version=1
nRows=4
nColumns=109
inDegrees=yes
endheader 
time	ground_force_SmoothSphereHalfSpaceForce_s1_r_vx	ground_force_SmoothSphereHalfSpaceForce_s1_r_vy	ground_force_SmoothSphereHalfSpaceForce_s1_r_vz	ground_force_SmoothSphereHalfSpaceForce_s1_r_px	ground_force_SmoothSphereHalfSpaceForce_s1_r_py	ground_force_SmoothSphereHalfSpaceForce_s1_r_pz	ground_torque_SmoothSphereHalfSpaceForce_s1_r_x	ground_torque_SmoothSphereHalfSpaceForce_s1_r_y	ground_torque_SmoothSphereHalfSpaceForce_s1_r_z	ground_force_SmoothSphereHalfSpaceForce_s2_r_vx	ground_force_SmoothSphereHalfSpaceForce_s2_r_vy	ground_force_SmoothSphereHalfSpaceForce_s2_r_vz	ground_force_SmoothSphereHalfSpaceForce_s2_r_px	ground_force_SmoothSphereHalfSpaceForce_s2_r_py	ground_force_SmoothSphereHalfSpaceForce_s2_r_pz	ground_torque_SmoothSphereHalfSpaceForce_s2_r_x	ground_torque_SmoothSphereHalfSpaceForce_s2_r_y	ground_torque_SmoothSphereHalfSpaceForce_s2_r_z	ground_force_SmoothSphereHalfSpaceForce_s3_r_vx	ground_force_SmoothSphereHalfSpaceForce_s3_r_vy	ground_force_SmoothSphereHalfSpaceForce_s3_r_vz	ground_force_SmoothSphereHalfSpaceForce_s3_r_px	ground_force_SmoothSphereHalfSpaceForce_s3_r_py	ground_force_SmoothSphereHalfSpaceForce_s3_r_pz	ground_torque_SmoothSphereHalfSpaceForce_s3_r_x	ground_torque_SmoothSphereHalfSpaceForce_s3_r_y	ground_torque_SmoothSphereHalfSpaceForce_s3_r_z	ground_force_SmoothSphereHalfSpaceForce_s4_r_vx	ground_force_SmoothSphereHalfSpaceForce_s4_r_vy	ground_force_SmoothSphereHalfSpaceForce_s4_r_vz	ground_force_SmoothSphereHalfSpaceForce_s4_r_px	ground_force_SmoothSphereHalfSpaceForce_s4_r_py	ground_force_SmoothSphereHalfSpaceForce_s4_r_pz	ground_torque_SmoothSphereHalfSpaceForce_s4_r_x	ground_torque_SmoothSphereHalfSpaceForce_s4_r_y	ground_torque_SmoothSphereHalfSpaceForce_s4_r_z	ground_force_SmoothSphereHalfSpaceForce_s5_r_vx	ground_force_SmoothSphereHalfSpaceForce_s5_r_vy	ground_force_SmoothSphereHalfSpaceForce_s5_r_vz	ground_force_SmoothSphereHalfSpaceForce_s5_r_px	ground_force_SmoothSphereHalfSpaceForce_s5_r_py	ground_force_SmoothSphereHalfSpaceForce_s5_r_pz	ground_torque_SmoothSphereHalfSpaceForce_s5_r_x	ground_torque_SmoothSphereHalfSpaceForce_s5_r_y	ground_torque_SmoothSphereHalfSpaceForce_s5_r_z	ground_force_SmoothSphereHalfSpaceForce_s6_r_vx	ground_force_SmoothSphereHalfSpaceForce_s6_r_vy	ground_force_SmoothSphereHalfSpaceForce_s6_r_vz	ground_force_SmoothSphereHalfSpaceForce_s6_r_px	ground_force_SmoothSphereHalfSpaceForce_s6_r_py	ground_force_SmoothSphereHalfSpaceForce_s6_r_pz	ground_torque_SmoothSphereHalfSpaceForce_s6_r_x	ground_torque_SmoothSphereHalfSpaceForce_s6_r_y	ground_torque_SmoothSphereHalfSpaceForce_s6_r_z	ground_force_SmoothSphereHalfSpaceForce_s1_l_vx	ground_force_SmoothSphereHalfSpaceForce_s1_l_vy	ground_force_SmoothSphereHalfSpaceForce_s1_l_vz	ground_force_SmoothSphereHalfSpaceForce_s1_l_px	ground_force_SmoothSphereHalfSpaceForce_s1_l_py	ground_force_SmoothSphereHalfSpaceForce_s1_l_pz	ground_torque_SmoothSphereHalfSpaceForce_s1_l_x	ground_torque_SmoothSphereHalfSpaceForce_s1_l_y	ground_torque_SmoothSphereHalfSpaceForce_s1_l_z	ground_force_SmoothSphereHalfSpaceForce_s2_l_vx	ground_force_SmoothSphereHalfSpaceForce_s2_l_vy	ground_force_SmoothSphereHalfSpaceForce_s2_l_vz	ground_force_SmoothSphereHalfSpaceForce_s2_l_px	ground_force_SmoothSphereHalfSpaceForce_s2_l_py	ground_force_SmoothSphereHalfSpaceForce_s2_l_pz	ground_torque_SmoothSphereHalfSpaceForce_s2_l_x	ground_torque_SmoothSphereHalfSpaceForce_s2_l_y	ground_torque_SmoothSphereHalfSpaceForce_s2_l_z	ground_force_SmoothSphereHalfSpaceForce_s3_l_vx	ground_force_SmoothSphereHalfSpaceForce_s3_l_vy	ground_force_SmoothSphereHalfSpaceForce_s3_l_vz	ground_force_SmoothSphereHalfSpaceForce_s3_l_px	ground_force_SmoothSphereHalfSpaceForce_s3_l_py	ground_force_SmoothSphereHalfSpaceForce_s3_l_pz	ground_torque_SmoothSphereHalfSpaceForce_s3_l_x	ground_torque_SmoothSphereHalfSpaceForce_s3_l_y	ground_torque_SmoothSphereHalfSpaceForce_s3_l_z	ground_force_SmoothSphereHalfSpaceForce_s4_l_vx	ground_force_SmoothSphereHalfSpaceForce_s4_l_vy	ground_force_SmoothSphereHalfSpaceForce_s4_l_vz	ground_force_SmoothSphereHalfSpaceForce_s4_l_px	ground_force_SmoothSphereHalfSpaceForce_s4_l_py	ground_force_SmoothSphereHalfSpaceForce_s4_l_pz	ground_torque_SmoothSphereHalfSpaceForce_s4_l_x	ground_torque_SmoothSphereHalfSpaceForce_s4_l_y	ground_torque_SmoothSphereHalfSpaceForce_s4_l_z	ground_force_SmoothSphereHalfSpaceForce_s5_l_vx	ground_force_SmoothSphereHalfSpaceForce_s5_l_vy	ground_force_SmoothSphereHalfSpaceForce_s5_l_vz	ground_force_SmoothSphereHalfSpaceForce_s5_l_px	ground_force_SmoothSphereHalfSpaceForce_s5_l_py	ground_force_SmoothSphereHalfSpaceForce_s5_l_pz	ground_torque_SmoothSphereHalfSpaceForce_s5_l_x	ground_torque_SmoothSphereHalfSpaceForce_s5_l_y	ground_torque_SmoothSphereHalfSpaceForce_s5_l_z	ground_force_SmoothSphereHalfSpaceForce_s6_l_vx	ground_force_SmoothSphereHalfSpaceForce_s6_l_vy	ground_force_SmoothSphereHalfSpaceForce_s6_l_vz	ground_force_SmoothSphereHalfSpaceForce_s6_l_px	ground_force_SmoothSphereHalfSpaceForce_s6_l_py	ground_force_SmoothSphereHalfSpaceForce_s6_l_pz	ground_torque_SmoothSphereHalfSpaceForce_s6_l_x	ground_torque_SmoothSphereHalfSpaceForce_s6_l_y	ground_torque_SmoothSphereHalfSpaceForce_s6_l_z	
          2.40000000	          0.00000000	         -0.00000000	         -0.00000000	         -3.52491544	         -0.00794192	         -0.01939518	          0.00000000	          0.00000000	          0.00000000	          0.00000000	         -0.00000000	         -0.00000000	         -3.35967252	         -0.01722999	         -0.00943525	          0.00000000	          0.00000000	          0.00000000	         -0.00000000	         -0.00000000	         -0.00000000	         -3.39339077	         -0.00195148	          0.07019930	          0.00000000	          0.00000000	          0.00000000	          0.00000000	         -0.00000000	         -0.00000000	         -3.46099952	         -0.00445512	          0.02765719	          0.00000000	          0.00000000	          0.00000000	          0.00000000	         -0.00000000	          0.00000000	         -3.28144762	         -0.02039886	          0.02127724	          0.00000000	          0.00000000	          0.00000000	         -0.00000000	         -0.00000000	          0.00000000	         -3.31532406	         -0.00668914	          0.10222353	          0.00000000	          0.00000000	          0.00000000	          0.00000000	         -0.00000000	         -0.00000000	         -3.90956948	          0.08776513	         -0.12450458	          0.00000000	          0.00000000	          0.00000000	          0.00000000	         -0.00000000	         -0.00000000	         -3.86094856	          0.01050524	         -0.08565692	          0.00000000	          0.00000000	          0.00000000	          0.00000000	         -0.00000000	         -0.00000000	         -3.84222638	          0.01970284	         -0.17353985	          0.00000000	          0.00000000	          0.00000000	          0.00000000	         -0.00000000	         -0.00000000	         -3.87561123	          0.05440698	         -0.15177314	          0.00000000	          0.00000000	          0.00000000	       -104.86733698	         35.08342995	         27.04219761	         -3.83417514	         -0.02933595	         -0.09227328	          0.00000000	          0.00000000	          0.00000000	         17.95698922	         -5.79077178	         -4.25623351	         -3.81815872	         -0.02084669	         -0.18119428	          0.00000000	          0.00000000	          0.00000000	
          2.41000000	          0.00000002	         -0.00000009	         -0.00000010	         -3.52202260	         -0.00457111	         -0.02694314	          0.00000000	          0.00000000	          0.00000000	        -75.43860896	        296.09077628	        230.09685520	         -3.35746709	         -0.01465656	         -0.01069165	          0.00000000	          0.00000000	          0.00000000	          1.09766897	          2.20086985	          1.84193576	         -3.39392550	          0.00071224	          0.06765563	          0.00000000	          0.00000000	          0.00000000	         -0.00335378	         -0.06556483	         -0.06981206	         -3.45989625	         -0.00143104	          0.02254097	          0.00000000	          0.00000000	          0.00000000	        -93.06484959	        336.54125821	       -211.54888151	         -3.28003702	         -0.01751415	          0.02288110	          0.00000000	          0.00000000	          0.00000000	         -0.00034797	         -0.00085761	          0.00006052	         -3.31647681	         -0.00307597	          0.10219086	          0.00000000	          0.00000000	          0.00000000	          0.00000000	         -0.00000000	         -0.00000000	         -3.85288948	          0.09069343	         -0.13444423	          0.00000000	          0.00000000	          0.00000000	         -0.00004345	          0.00001240	          0.00001184	         -3.80906942	          0.01247872	         -0.09757778	          0.00000000	          0.00000000	          0.00000000	          0.00000000	         -0.00000000	         -0.00000000	         -3.78752012	          0.02234010	         -0.18452003	          0.00000000	          0.00000000	          0.00000000	          0.00000000	         -0.00000000	         -0.00000000	         -3.81981092	          0.05721402	         -0.16219537	          0.00000000	          0.00000000	          0.00000000	         -7.43471794	          2.10347879	          2.05124435	         -3.78424609	         -0.02761075	         -0.10518012	          0.00000000	          0.00000000	          0.00000000	          0.00000001	         -0.00000000	         -0.00000000	         -3.76557435	         -0.01843663	         -0.19330758	          0.00000000	          0.00000000	          0.00000000	
          2.42000000	         -1.07905266	          4.92155636	          5.48641012	         -3.51997299	         -0.00252240	         -0.03400467	          0.00000000	          0.00000000	          0.00000000	        -72.73965840	        410.91933850	        251.97248969	         -3.35653619	         -0.01439535	         -0.01223219	          0.00000000	          0.00000000	          0.00000000	          1.41659236	          2.63175164	          2.08718937	         -3.39492090	          0.00141111	          0.06483628	          0.00000000	          0.00000000	          0.00000000	          0.21264183	          3.21170157	          3.31460527	         -3.45941907	         -0.00003516	          0.01753443	          0.00000000	          0.00000000	          0.00000000	        -75.51729374	        355.28838308	       -230.80746672	         -3.27959871	         -0.01691406	          0.02368600	          0.00000000	          0.00000000	          0.00000000	         -0.00121602	         -0.00332544	          0.00031657	         -3.31761575	         -0.00099915	          0.10110246	          0.00000000	          0.00000000	          0.00000000	         -0.00000000	         -0.00000000	          0.00000000	         -3.80002946	          0.09130699	         -0.14481434	          0.00000000	          0.00000000	          0.00000000	         -0.00010722	          0.00002669	          0.00002755	         -3.75106379	          0.01343036	         -0.11175710	          0.00000000	          0.00000000	          0.00000000	          0.00000000	         -0.00000000	         -0.00000000	         -3.72798990	          0.02513281	         -0.19738489	          0.00000000	          0.00000000	          0.00000000	         -0.00000000	         -0.00000000	          0.00000000	         -3.76359870	          0.05896872	         -0.17375473	          0.00000000	          0.00000000	          0.00000000	         33.10110917	         -7.86995178	         -8.35580060	         -3.72253235	         -0.02598186	         -0.12116368	          0.00000000	          0.00000000	          0.00000000	          0.00000000	         -0.00000000	         -0.00000000	         -3.70194578	         -0.01495473	         -0.20800575	          0.00000000	          0.00000000	          0.00000000	
          2.43000000	         -1.62442664	          6.98477794	          7.23706497	         -3.51822358	         -0.00129194	         -0.03998638	          0.00000000	          0.00000000	          0.00000000	        -59.04487902	        456.68268944	        207.99320164	         -3.35588537	         -0.01446367	         -0.01349439	          0.00000000	          0.00000000	          0.00000000	          1.13392855	          2.26588128	          1.76063774	         -3.39591051	          0.00181246	          0.06233867	          0.00000000	          0.00000000	          0.00000000	          0.10812569	          2.82899067	          2.77815571	         -3.45908093	          0.00080118	          0.01323414	          0.00000000	          0.00000000	          0.00000000	        -80.52314577	        364.68462704	       -191.52273459	         -3.27932545	         -0.01641071	          0.02428643	          0.00000000	          0.00000000	          0.00000000	         -0.00047029	         -0.00398676	          0.00018362	         -3.31860346	          0.00096776	          0.09979096	          0.00000000	          0.00000000	          0.00000000	         -0.00000000	         -0.00000000	          0.00000000	         -3.74836800	          0.08970320	         -0.15538628	          0.00000000	          0.00000000	          0.00000000	         -0.00015443	          0.00003607	          0.00003520	         -3.68735421	          0.01355897	         -0.12648934	          0.00000000	          0.00000000	          0.00000000	          0.00000000	         -0.00000000	         -0.00000000	         -3.66469070	          0.02765526	         -0.21077372	          0.00000000	          0.00000000	          0.00000000	         -0.00000000	         -0.00000000	          0.00000000	         -3.70619365	          0.05948830	         -0.18567430	          0.00000000	          0.00000000	          0.00000000	         33.84655740	         -7.51717769	         -7.47711691	         -3.65163952	         -0.02430549	         -0.13778108	          0.00000000	          0.00000000	          0.00000000	          0.00000000	         -0.00000000	         -0.00000000	         -3.63082697	         -0.01086173	         -0.22319560	          0.00000000	          0.00000000	          0.00000000	
